<svg xmlns="http://www.w3.org/2000/svg" viewBox="0 0 155.39 258.09"><defs><style>.cls-1{stroke:#000;stroke-miterlimit:10;stroke-width:7px;}</style></defs><g id="Layer_2" data-name="Layer 2"><g id="Layer_1-2" data-name="Layer 1"><path class="cls-1" d="M62.51,220.06q-.27-1.65-6.59-23.05l-9.6-33.49Q31.22,111.38,26.83,99l-1.65-4.67q-.27.56-1,1.65c-.46.73-1.23,1.92-2.33,3.57q-3.3,6-5.49,9.33l-3.84,6.31v97.72c0,3.11-.28,5.25-.83,6.45s-1.74,1.78-3.56,1.78-3.07-.64-3.71-1.92-1-3.57-1-6.86v-82.9q0-16.18.82-52.69l.55-52.7a77,77,0,0,1,.55-9.61c.55-2.2,1.55-3.29,3-3.29,2.75,0,4.39.64,4.94,1.92Q14.47,15,14.48,23l-.55,45.56-.55,33.21h.28q5.2-11.52,14.82-34.58L38.63,41.65Q54,3.51,58.12,3.5a5.1,5.1,0,0,1,3.29,1.1,3.65,3.65,0,0,1,1.38,3,30.19,30.19,0,0,1-4.39,11l-2.75,4.94Q51,34.52,41.93,56.47q-11,26.63-11.81,28a6.35,6.35,0,0,0,.28,3.29q5.49,14,12.35,34.59T54,158q4.66,16.47,9.47,33.49T70.2,216a11.78,11.78,0,0,1,.55,1.92,3.57,3.57,0,0,1-1.51,3A5.79,5.79,0,0,1,65.81,222,3.23,3.23,0,0,1,62.51,220.06Z"/><path class="cls-1" d="M104.2,250.2l-.55-2.79a10.38,10.38,0,0,0-.22-2.38l-.23-1.16-9.7-27.36q-3.36-8.52-4.6-12.4-5.28-15.88-11.52-35.46-5-15.47-16.72-50.88l-1.74-5.22Q50.28,86.92,48.15,84.67a6.84,6.84,0,0,1,1.69-2.5,5.11,5.11,0,0,1,2.61-1.48c2.33-.46,4-.38,5,.23s1.71,1.93,2.1,3.94L60,87l.45,2.33.51,2.56q22.1,74.73,43,139.55l.46-.09q-.62-6.88-4.44-37.57l-.85-6.85Q94.93,157,94.84,155.33q-.66-7.12-1.21-21l-.89-19.41L91.34,104c-.21-1.89-.4-3.5-.58-4.84a17.08,17.08,0,0,1-.22-3l-.36-3.07a1.48,1.48,0,0,1,.21-.77,4.42,4.42,0,0,1,.87-1.14q3.26-.63,4.51.82A3.57,3.57,0,0,1,97,93.38a7.42,7.42,0,0,1,.62,1.93l.88,2q4.74,11.88,22.58,62.31t22.69,66.64l.79.33-9.82-96q-1.26-8.94-2.43-28.54a279.45,279.45,0,0,0-3.82-31.89l-.69-2.29-.41-2.09c-.39-2-.2-3.54.56-4.58s2.23-1.77,4.41-2.19a4.94,4.94,0,0,1,3.14.59,3.33,3.33,0,0,1,2,2.27c.3,1.55-.26,3.19-1.7,4.92.19.13.36.58.51,1.36a13.58,13.58,0,0,1,.22,3c0,1.06-.09,1.83-.15,2.33q1.53,21.47,5.77,62.94l4.77,49.11,1.73,18.76,1.81,24.07,1.15,12.1a8.63,8.63,0,0,1,0,4.35c-.37,1-1.4,1.73-3.11,2.06-2.48.49-4.14-.16-5-1.93a38.2,38.2,0,0,1-2.2-6.34l-.92-3.45q-12.6-34.75-41.71-124.33l-.79-.33-.19.28,0,.23L111,240.41l.82,4.2q1.77,9.07-2.19,9.85C106.67,255,104.87,253.62,104.2,250.2Z"/></g></g></svg>