<?xml version="1.0" encoding="utf-8"?>
<!-- Generator: Adobe Illustrator 25.0.1, SVG Export Plug-In . SVG Version: 6.00 Build 0)  -->
<svg version="1.1" id="Layer_1" xmlns="http://www.w3.org/2000/svg" xmlns:xlink="http://www.w3.org/1999/xlink" x="0px" y="0px"
	 viewBox="0 0 155.4 258.1" style="enable-background:new 0 0 155.4 258.1;" xml:space="preserve">
<style type="text/css">
	.st0{stroke:#000000;stroke-width:7;stroke-miterlimit:10;}
	.st1{stroke:#000000;stroke-width:9;stroke-miterlimit:10;}
</style>
<g id="Layer_2_1_">
	<g id="Layer_1-2">
		<path class="st0" d="M62.5,220.1c-0.2-1.1-2.4-8.8-6.6-23.1l-9.6-33.5C36.3,128.8,29.8,107.3,26.8,99l-1.6-4.7
			c-0.2,0.4-0.5,0.9-1,1.7c-0.5,0.7-1.2,1.9-2.3,3.6c-2.2,4-4,7.1-5.5,9.3l-3.8,6.3v97.7c0,3.1-0.3,5.2-0.8,6.4s-1.7,1.8-3.6,1.8
			s-3.1-0.6-3.7-1.9s-1-3.6-1-6.9v-82.9c0-10.8,0.3-28.4,0.8-52.7l0.6-52.7c0-3.2,0.2-6.4,0.6-9.6c0.6-2.2,1.5-3.3,3-3.3
			c2.8,0,4.4,0.6,4.9,1.9c0.8,1.3,1.2,4.6,1.2,9.9l-0.6,45.6l-0.6,33.2h0.3c3.5-7.7,8.4-19.2,14.8-34.6l10.2-25.5
			C48.9,16.2,55.4,3.5,58.1,3.5c1.2,0,2.4,0.4,3.3,1.1c0.9,0.7,1.4,1.8,1.4,3c-0.7,3.9-2.2,7.7-4.4,11l-2.8,4.9
			c-3.1,7.3-7.7,18.3-13.7,32.9c-7.3,17.8-11.3,27.1-11.8,28c-0.2,1.1-0.1,2.2,0.3,3.3c3.7,9.3,7.8,20.9,12.4,34.6S51.1,148,54,158
			c3.1,11,6.3,22.1,9.5,33.5c3.2,11.3,5.4,19.5,6.7,24.5c0.2,0.6,0.4,1.3,0.6,1.9c0,1.2-0.5,2.3-1.5,3c-1,0.7-2.2,1.1-3.4,1.1
			C64.4,222.1,63.1,221.4,62.5,220.1z"/>
		<path class="st1" d="M104.2,250.2l-0.6-2.8c0-0.8-0.1-1.6-0.2-2.4l-0.2-1.2l-9.7-27.4c-2.2-5.7-3.8-9.8-4.6-12.4
			c-3.5-10.6-7.4-22.4-11.5-35.5c-3.3-10.3-8.9-27.3-16.7-50.9l-1.7-5.2c-5.8-17.1-9.3-26.4-10.8-27.9c0.4-0.9,0.9-1.8,1.7-2.5
			c0.7-0.7,1.6-1.3,2.6-1.5c2.3-0.5,4-0.4,5,0.2s1.7,1.9,2.1,3.9L60,87l0.5,2.3l0.5,2.6c14.7,49.8,29.1,96.3,43,139.6l0.5-0.1
			c-0.4-4.6-1.9-17.1-4.4-37.6l-0.8-6.9c-2.8-20-4.2-30.5-4.3-31.6c-0.4-4.7-0.8-11.7-1.2-21l-0.9-19.4L91.3,104
			c-0.2-1.9-0.4-3.5-0.6-4.8c-0.2-1-0.2-2-0.2-3l-0.4-3.1c0-0.3,0.1-0.5,0.2-0.8c0.2-0.4,0.5-0.8,0.9-1.1c2.2-0.4,3.7-0.1,4.5,0.8
			c0.5,0.3,0.9,0.8,1.2,1.4c0.3,0.6,0.5,1.3,0.6,1.9l0.9,2c3.2,7.9,10.7,28.7,22.6,62.3s19.5,55.8,22.7,66.6l0.8,0.3l-9.8-96
			c-0.8-6-1.6-15.5-2.4-28.5c-0.7-10.7-1.9-21.3-3.8-31.9l-0.7-2.3l-0.4-2.1c-0.4-2-0.2-3.5,0.6-4.6s2.2-1.8,4.4-2.2
			c1.1-0.2,2.2,0.1,3.1,0.6c1,0.4,1.7,1.2,2,2.3c0.3,1.5-0.3,3.2-1.7,4.9c0.2,0.1,0.4,0.6,0.5,1.4c0.2,1,0.3,2,0.2,3
			c0,1.1-0.1,1.8-0.1,2.3c1,14.3,2.9,35.3,5.8,62.9l4.8,49.1l1.7,18.8l1.8,24.1l1.1,12.1c0.4,1.4,0.4,2.9,0,4.4
			c-0.4,1-1.4,1.7-3.1,2.1c-2.5,0.5-4.1-0.2-5-1.9c-0.9-2-1.7-4.2-2.2-6.3l-0.9-3.4c-8.4-23.2-22.3-64.6-41.7-124.3l-0.8-0.3
			l-0.2,0.3v0.2L111,240.4l0.8,4.2c1.2,6,0.4,9.3-2.2,9.9C106.7,255,104.9,253.6,104.2,250.2z"/>
	</g>
</g>
</svg>
