<svg width="0" height="0" class="hidden">
  <symbol xmlns="http://www.w3.org/2000/svg" viewBox="0 -28 512 512" id="heart-filled">
    <path d="M471.383 44.578C444.879 15.832 408.512 0 368.973 0c-29.555 0-56.621 9.344-80.45 27.77C276.5 37.07 265.605 48.45 256 61.73c-9.602-13.277-20.5-24.66-32.527-33.96C199.648 9.344 172.582 0 143.027 0c-39.539 0-75.91 15.832-102.414 44.578C14.426 72.988 0 111.801 0 153.871c0 43.3 16.137 82.938 50.781 124.742 30.992 37.395 75.535 75.356 127.117 119.313 17.614 15.012 37.579 32.027 58.309 50.152A30.023 30.023 0 00256 455.516a30.03 30.03 0 0019.785-7.43c20.73-18.129 40.707-35.152 58.328-50.172 51.575-43.95 96.117-81.906 127.11-119.305C495.867 236.81 512 197.172 512 153.867c0-42.066-14.426-80.879-40.617-109.289zm0 0"></path>
  </symbol>
  <symbol xmlns="http://www.w3.org/2000/svg" viewBox="0 -28 512.001 512" id="heart">
    <path d="M256 455.516a30.022 30.022 0 01-19.793-7.438c-20.684-18.086-40.625-35.082-58.219-50.074l-.09-.078c-51.582-43.957-96.125-81.918-127.117-119.313C16.137 236.81 0 197.172 0 153.871c0-42.07 14.426-80.883 40.617-109.293C67.121 15.832 103.488 0 143.031 0c29.555 0 56.621 9.344 80.446 27.77C235.5 37.07 246.398 48.453 256 61.73c9.605-13.277 20.5-24.66 32.527-33.96C312.352 9.344 339.418 0 368.973 0c39.539 0 75.91 15.832 102.414 44.578C497.578 72.988 512 111.801 512 153.871c0 43.3-16.133 82.938-50.777 124.738-30.993 37.399-75.532 75.356-127.106 119.309-17.625 15.016-37.597 32.039-58.328 50.168a30.046 30.046 0 01-19.789 7.43zM143.031 29.992c-31.066 0-59.605 12.399-80.367 34.914-21.07 22.856-32.676 54.45-32.676 88.965 0 36.418 13.535 68.988 43.883 105.606 29.332 35.394 72.961 72.574 123.477 115.625l.093.078c17.66 15.05 37.68 32.113 58.516 50.332 20.961-18.254 41.012-35.344 58.707-50.418 50.512-43.051 94.137-80.223 123.469-115.617 30.344-36.618 43.879-69.188 43.879-105.606 0-34.516-11.606-66.11-32.676-88.965-20.758-22.515-49.3-34.914-80.363-34.914-22.758 0-43.653 7.235-62.102 21.5-16.441 12.719-27.894 28.797-34.61 40.047-3.452 5.785-9.53 9.238-16.261 9.238s-12.809-3.453-16.262-9.238c-6.71-11.25-18.164-27.328-34.61-40.047-18.448-14.265-39.343-21.5-62.097-21.5zm0 0"></path>
  </symbol>
  <symbol xmlns="http://www.w3.org/2000/svg" viewBox="0 0 155.4 258.1" id="logo">
    <g stroke-miterlimit="10">
      <path d="M62.5 220.1c-.2-1.1-2.4-8.8-6.6-23.1l-9.6-33.5c-10-34.7-16.5-56.2-19.5-64.5l-1.6-4.7c-.2.4-.5.9-1 1.7-.5.7-1.2 1.9-2.3 3.6-2.2 4-4 7.1-5.5 9.3l-3.8 6.3v97.7c0 3.1-.3 5.2-.8 6.4s-1.7 1.8-3.6 1.8-3.1-.6-3.7-1.9-1-3.6-1-6.9v-82.9c0-10.8.3-28.4.8-52.7L4.9 24c0-3.2.2-6.4.6-9.6.6-2.2 1.5-3.3 3-3.3 2.8 0 4.4.6 4.9 1.9.8 1.3 1.2 4.6 1.2 9.9L14 68.5l-.6 33.2h.3c3.5-7.7 8.4-19.2 14.8-34.6l10.2-25.5C48.9 16.2 55.4 3.5 58.1 3.5c1.2 0 2.4.4 3.3 1.1.9.7 1.4 1.8 1.4 3-.7 3.9-2.2 7.7-4.4 11l-2.8 4.9c-3.1 7.3-7.7 18.3-13.7 32.9-7.3 17.8-11.3 27.1-11.8 28-.2 1.1-.1 2.2.3 3.3 3.7 9.3 7.8 20.9 12.4 34.6S51.1 148 54 158c3.1 11 6.3 22.1 9.5 33.5 3.2 11.3 5.4 19.5 6.7 24.5.2.6.4 1.3.6 1.9 0 1.2-.5 2.3-1.5 3-1 .7-2.2 1.1-3.4 1.1-1.5.1-2.8-.6-3.4-1.9z" stroke-width="7"></path>
      <path d="M104.2 250.2l-.6-2.8c0-.8-.1-1.6-.2-2.4l-.2-1.2-9.7-27.4c-2.2-5.7-3.8-9.8-4.6-12.4-3.5-10.6-7.4-22.4-11.5-35.5-3.3-10.3-8.9-27.3-16.7-50.9l-1.7-5.2C53.2 95.3 49.7 86 48.2 84.5c.4-.9.9-1.8 1.7-2.5.7-.7 1.6-1.3 2.6-1.5 2.3-.5 4-.4 5 .2s1.7 1.9 2.1 3.9L60 87l.5 2.3.5 2.6c14.7 49.8 29.1 96.3 43 139.6l.5-.1c-.4-4.6-1.9-17.1-4.4-37.6l-.8-6.9c-2.8-20-4.2-30.5-4.3-31.6-.4-4.7-.8-11.7-1.2-21l-.9-19.4-1.6-10.9c-.2-1.9-.4-3.5-.6-4.8-.2-1-.2-2-.2-3l-.4-3.1c0-.3.1-.5.2-.8.2-.4.5-.8.9-1.1 2.2-.4 3.7-.1 4.5.8.5.3.9.8 1.2 1.4.3.6.5 1.3.6 1.9l.9 2c3.2 7.9 10.7 28.7 22.6 62.3s19.5 55.8 22.7 66.6l.8.3-9.8-96c-.8-6-1.6-15.5-2.4-28.5-.7-10.7-1.9-21.3-3.8-31.9l-.7-2.3-.4-2.1c-.4-2-.2-3.5.6-4.6s2.2-1.8 4.4-2.2c1.1-.2 2.2.1 3.1.6 1 .4 1.7 1.2 2 2.3.3 1.5-.3 3.2-1.7 4.9.2.1.4.6.5 1.4.2 1 .3 2 .2 3 0 1.1-.1 1.8-.1 2.3 1 14.3 2.9 35.3 5.8 62.9l4.8 49.1 1.7 18.8 1.8 24.1 1.1 12.1c.4 1.4.4 2.9 0 4.4-.4 1-1.4 1.7-3.1 2.1-2.5.5-4.1-.2-5-1.9-.9-2-1.7-4.2-2.2-6.3l-.9-3.4c-8.4-23.2-22.3-64.6-41.7-124.3l-.8-.3-.2.3v.2L111 240.4l.8 4.2c1.2 6 .4 9.3-2.2 9.9-2.9.5-4.7-.9-5.4-4.3z" stroke-width="9"></path>
    </g>
  </symbol>
  <symbol xmlns="http://www.w3.org/2000/svg" viewBox="0 0 396.016 396.016" id="shopping-bag">
    <path d="M9.404 160.914l37.094 200.62c3.519 19.801 20.641 34.289 40.751 34.482h221.518c20.111-.193 37.232-14.68 40.751-34.482l37.094-200.62H9.404zm120.686 89.862c0 5.771-4.678 10.449-10.449 10.449s-10.449-4.678-10.449-10.449v-31.347c0-5.771 4.678-10.449 10.449-10.449s10.449 4.678 10.449 10.449v31.347zm156.735 0c0 5.771-4.678 10.449-10.449 10.449s-10.449-4.678-10.449-10.449v-31.347c0-5.771 4.678-10.449 10.449-10.449s10.449 4.678 10.449 10.449v31.347zM130.09 88.816c0-37.51 30.408-67.918 67.918-67.918 37.51 0 67.918 30.408 67.918 67.918v61.649h20.898V88.816C286.825 39.764 247.06 0 198.008 0s-88.816 39.764-88.816 88.816v61.649h20.898V88.816z"></path>
  </symbol>
</svg>